<svg height="511pt" viewBox="-4 0 511 511.89337" width="511pt" xmlns="http://www.w3.org/2000/svg"><path d="m503.769531 320.976562c1.054688-21.582031-7.453125-42.535156-23.257812-57.273437-18.082031-14.265625-40.585938-21.757813-63.609375-21.171875h-.867188c.609375-1.246094.9375-2.609375.953125-3.992188 0-21.609374-81.570312-39.050781-182.238281-39.050781-100.664062 0-182.234375 17.441407-182.234375 39.050781-.585937 55.875 20.609375 109.785157 59.097656 150.300782-66.734375 8.417968-111.167969 23.429687-111.167969 40.613281 0 45.558594 104.917969 82.441406 234.304688 82.441406 129.390625 0 234.308594-36.882812 234.308594-82.441406 0-12.582031-23.953125-24.039063-63.003906-32.542969 52.15625-13.796875 97.714843-36.96875 97.714843-75.933594zm-38.097656 6.335938c-6.335937 13.015625-21.171875 19.785156-33.929687 24.820312-18.214844 6.921876-37.003907 12.238282-56.148438 15.878907 19.53125-26.871094 32.542969-57.917969 38.011719-90.683594 17.289062-1.160156 34.320312 4.652344 47.292969 16.140625 8.492187 9.183594 10.394531 22.671875 4.773437 33.84375zm0 0" fill="#e4c05c"/><path d="m416.902344 242.53125c-.164063 11.667969-1.269532 23.304688-3.296875 34.796875-5.46875 32.765625-18.480469 63.8125-38.011719 90.683594-11.929688 16.347656-26.402344 30.671875-42.867188 42.4375-10.351562 7.460937-21.496093 13.746093-33.238281 18.742187-41.34375 17.703125-88.132812 17.703125-129.472656 0-21.980469-9.394531-41.839844-23.121094-58.402344-40.351562-38.488281-40.515625-59.683593-94.425782-59.097656-150.300782 0 8.589844 12.929687 16.574219 34.882813 22.996094 33.066406 9.71875 86.78125 16.054688 147.351562 16.054688 60.574219 0 114.289062-6.335938 147.355469-16.054688 18.480469-5.382812 30.632812-11.976562 33.929687-19.003906zm0 0" fill="#f5efca"/><path d="m503.769531 320.976562c0 38.964844-45.558593 62.136719-97.714843 75.933594h-.171876c-24.070312 6.085938-48.503906 10.609375-73.15625 13.539063 16.464844-11.765625 30.9375-26.089844 42.867188-42.4375 19.144531-3.640625 37.933594-8.957031 56.148438-15.878907 12.757812-5.035156 27.59375-11.804687 33.929687-24.820312 5.621094-11.171875 3.71875-24.660156-4.773437-33.84375-12.972657-11.488281-30.003907-17.300781-47.292969-16.140625 2.027343-11.492187 3.132812-23.128906 3.296875-34.796875 23.023437-.585938 45.527344 6.90625 63.609375 21.171875 15.804687 14.738281 24.3125 35.691406 23.257812 57.273437zm0 0" fill="#f9eab0"/><path d="m382.277344 260.230469c-.015625.441406-.074219.875-.171875 1.304687-33.066407 9.71875-86.78125 16.054688-147.355469 16.054688-60.570312 0-114.285156-6.335938-147.351562-16.054688-.097657-.429687-.15625-.863281-.171876-1.304687 0-14.402344 66.039063-26.03125 147.523438-26.03125 81.488281 0 147.527344 11.628906 147.527344 26.03125zm0 0" fill="#af8066"/><path d="m469.058594 429.453125c0 45.558594-104.917969 82.441406-234.308594 82.441406-129.386719 0-234.304688-36.882812-234.304688-82.441406 0 25.078125 94.9375 45.644531 215.648438 47.46875 2.082031 0 4.164062.085937 6.25.085937 2.082031 0 4.078125.085938 6.160156.085938 2.082032 0 4.164063.085938 6.246094.085938 2.085938 0 4.167969 0 6.25-.085938s4.078125 0 6.160156-.085938c2.082032-.085937 4.167969-.085937 6.25-.085937 120.710938-1.824219 215.648438-22.390625 215.648438-47.46875zm0 0" fill="#b19046"/><path d="m356.242188 451.148438c0 13.015624-44.605469 23.777343-102.832032 25.773437-2.082031 0-4.167968.085937-6.25.085937-2.082031 0-4.078125.085938-6.160156.085938s-4.164062.085938-6.25.085938c-2.082031 0-4.164062 0-6.246094-.085938-2.082031-.085938-4.078125 0-6.160156-.085938-2.085938-.085937-4.167969-.085937-6.25-.085937-58.230469-1.996094-102.832031-12.757813-102.832031-25.773437 0-9.285157 22.648437-17.445313 56.753906-21.957032 41.339844 17.703125 88.128906 17.703125 129.472656 0 34.105469 4.511719 56.753907 12.671875 56.753907 21.957032zm0 0" fill="#7f6e5d"/><path d="m104.582031 303.621094c0 3.8125-2.507812 7.167968-6.160156 8.246094-.8125.277343-1.660156.421874-2.515625.433593-4.792969 0-8.679688-3.886719-8.679688-8.679687 0-4.792969 3.886719-8.675782 8.679688-8.675782 4.789062 0 8.675781 3.882813 8.675781 8.675782zm0 0" fill="#fff"/><path d="m156.648438 390.402344c-1.710938 0-3.382813-.507813-4.804688-1.457032-20.066406-13.046874-37.09375-30.25-49.933594-50.445312-2.535156-4.074219-1.285156-9.429688 2.789063-11.964844 4.074219-2.53125 9.429687-1.28125 11.960937 2.792969 11.539063 18.09375 26.828125 33.5 44.832032 45.175781 3.1875 2.125 4.601562 6.085938 3.488281 9.75-1.117188 3.660156-4.5 6.160156-8.332031 6.148438zm0 0" fill="#fff"/><g fill="#95a5a5"><path d="m191.363281 173.453125c-3.5.007813-6.664062-2.082031-8.023437-5.304687-1.359375-3.226563-.648438-6.949219 1.800781-9.449219 4.390625-5.695313 6.597656-12.777344 6.222656-19.957031.375-7.183594-1.835937-14.265626-6.230469-19.960938-7.667968-8.894531-11.644531-20.378906-11.125-32.109375-.507812-11.761719 3.507813-23.273437 11.21875-32.167969 2.179688-2.257812 5.40625-3.160156 8.4375-2.367187 3.035157.792969 5.40625 3.164062 6.199219 6.199219.792969 3.03125-.109375 6.257812-2.367187 8.4375-4.339844 5.695312-6.515625 12.75-6.132813 19.898437-.375 7.183594 1.835938 14.265625 6.230469 19.960937 7.664062 8.894532 11.644531 20.378907 11.125 32.109376.503906 11.761718-3.507812 23.273437-11.222656 32.167968-1.625 1.628906-3.832032 2.542969-6.132813 2.542969zm0 0"/><path d="m243.429688 121.386719c-3.5.007812-6.660157-2.082031-8.019532-5.308594-1.359375-3.222656-.652344-6.945313 1.796875-9.445313 4.390625-5.699218 6.597657-12.777343 6.222657-19.960937.375-7.183594-1.835938-14.261719-6.230469-19.957031-7.664063-8.894532-11.644531-20.378906-11.125-32.109375-.507813-11.761719 3.507812-23.273438 11.21875-32.167969 3.40625-3.289062 8.820312-3.242188 12.167969.105469 3.347656 3.347656 3.394531 8.757812.105468 12.164062-4.34375 5.695313-6.515625 12.746094-6.136718 19.898438-.375 7.183593 1.835937 14.265625 6.230468 19.960937 7.664063 8.890625 11.644532 20.378906 11.125 32.105469.507813 11.765625-3.507812 23.273437-11.21875 32.171875-1.628906 1.625-3.835937 2.539062-6.136718 2.542969zm0 0"/><path d="m295.496094 173.453125c-3.496094.007813-6.660156-2.082031-8.019532-5.304687-1.359374-3.226563-.648437-6.949219 1.800782-9.449219 4.386718-5.695313 6.59375-12.777344 6.21875-19.957031.375-7.183594-1.835938-14.265626-6.230469-19.960938-7.664063-8.894531-11.644531-20.378906-11.125-32.109375-.503906-11.761719 3.511719-23.273437 11.222656-32.167969 2.179688-2.257812 5.402344-3.160156 8.4375-2.367187 3.035157.792969 5.40625 3.164062 6.199219 6.199219.792969 3.03125-.109375 6.257812-2.367188 8.4375-4.339843 5.695312-6.515624 12.75-6.136718 19.898437-.375 7.183594 1.835937 14.265625 6.230468 19.960937 7.667969 8.894532 11.644532 20.378907 11.125 32.109376.507813 11.761718-3.507812 23.273437-11.21875 32.167968-1.628906 1.628906-3.832031 2.542969-6.136718 2.542969zm0 0"/></g></svg>